<svg xmlns="http://www.w3.org/2000/svg" viewBox="0 0 400 400" width="400" height="400">
  <defs>
    <pattern id="grid" width="20" height="20" patternUnits="userSpaceOnUse">
      <path d="M 20 0 L 0 0 0 20" fill="none" stroke="#0EA5E9" stroke-width="0.3" opacity="0.2"/>
    </pattern>
  </defs>
  <!-- Arkaplan -->
  <rect width="400" height="400" fill="#0A1628"/>
  <rect width="400" height="400" fill="url(#grid)"/>
  <!-- İçerik -->
  
  <!-- Havalandırma parmağı -->
  <rect x="100" y="100" width="200" height="120" rx="6" fill="#0D1F35" stroke="#475569" stroke-width="1"/>
  <rect x="110" y="108" width="180" height="10" rx="3" fill="#0A1628" stroke="#475569" stroke-width="0.5" opacity="0.7"/><rect x="110" y="126" width="180" height="10" rx="3" fill="#0A1628" stroke="#475569" stroke-width="0.5" opacity="0.7"/><rect x="110" y="144" width="180" height="10" rx="3" fill="#0A1628" stroke="#475569" stroke-width="0.5" opacity="0.7"/><rect x="110" y="162" width="180" height="10" rx="3" fill="#0A1628" stroke="#475569" stroke-width="0.5" opacity="0.7"/><rect x="110" y="180" width="180" height="10" rx="3" fill="#0A1628" stroke="#475569" stroke-width="0.5" opacity="0.7"/>
  <!-- Klips tutucu -->
  <rect x="160" y="195" width="80" height="110" rx="8" fill="#0D1F35" stroke="#0EA5E9" stroke-width="2"/>
  <!-- Telefon -->
  <rect x="168" y="203" width="64" height="94" rx="5" fill="#0A1628" stroke="#0EA5E9" stroke-width="0.5"/>
  <rect x="172" y="208" width="56" height="82" rx="3" fill="#0f1f3d"/>
  <!-- Yandan klips -->
  <rect x="148" y="210" width="12" height="30" rx="4" fill="#0EA5E9" opacity="0.8"/>
  <rect x="240" y="210" width="12" height="30" rx="4" fill="#0EA5E9" opacity="0.8"/>
  <text x="200" y="340" text-anchor="middle" font-family="sans-serif" font-size="11" fill="#94A3B8">Araç Tutucu</text>

  <!-- Etiket -->
  <rect x="0" y="356" width="400" height="44" fill="#0D1F35" opacity="0.95"/>
  <line x1="0" y1="356" x2="400" y2="356" stroke="#0EA5E9" stroke-width="1" opacity="0.5"/>
  <text x="200" y="382" text-anchor="middle" font-family="monospace" font-size="12" fill="#0EA5E9" opacity="0.9">ARAÇ İÇİ</text>
</svg>