<svg xmlns="http://www.w3.org/2000/svg" viewBox="0 0 400 400" width="400" height="400">
  <defs>
    <pattern id="grid" width="20" height="20" patternUnits="userSpaceOnUse">
      <path d="M 20 0 L 0 0 0 20" fill="none" stroke="#22C55E" stroke-width="0.3" opacity="0.2"/>
    </pattern>
  </defs>
  <!-- Arkaplan -->
  <rect width="400" height="400" fill="#0A1628"/>
  <rect width="400" height="400" fill="url(#grid)"/>
  <!-- İçerik -->
  
  <!-- Küçük saksı -->
  <polygon points="145,230 165,230 160,290 150,290" fill="#22C55E" opacity="0.6" stroke="#22C55E" stroke-width="1"/>
  <ellipse cx="155" cy="230" rx="12" ry="5" fill="#22C55E" opacity="0.8"/>
  <!-- Orta saksı -->
  <polygon points="185,200 215,200 208,290 192,290" fill="#22C55E" opacity="0.7" stroke="#22C55E" stroke-width="1.5"/>
  <ellipse cx="200" cy="200" rx="18" ry="7" fill="#22C55E" opacity="0.9"/>
  <!-- Büyük saksı -->
  <polygon points="225,165 265,165 256,290 234,290" fill="#22C55E" opacity="0.8" stroke="#22C55E" stroke-width="1.5"/>
  <ellipse cx="245" cy="165" rx="22" ry="9" fill="#22C55E" opacity="0.9"/>
  <!-- Bitkiler -->
  <path d="M155 230 C150 210 140 195 145 180" fill="none" stroke="#4ade80" stroke-width="3"/>
  <circle cx="143" cy="178" r="8" fill="#4ade80" opacity="0.7"/>
  <path d="M200 200 C195 175 188 158 192 140" fill="none" stroke="#4ade80" stroke-width="3"/>
  <circle cx="190" cy="137" r="12" fill="#4ade80" opacity="0.7"/>
  <path d="M245 165 C240 135 232 115 237 95" fill="none" stroke="#4ade80" stroke-width="3"/>
  <circle cx="234" cy="91" r="16" fill="#4ade80" opacity="0.7"/>
  <text x="200" y="335" text-anchor="middle" font-family="sans-serif" font-size="11" fill="#94A3B8">Saksı Seti</text>

  <!-- Etiket -->
  <rect x="0" y="356" width="400" height="44" fill="#0D1F35" opacity="0.95"/>
  <line x1="0" y1="356" x2="400" y2="356" stroke="#22C55E" stroke-width="1" opacity="0.5"/>
  <text x="200" y="382" text-anchor="middle" font-family="monospace" font-size="12" fill="#22C55E" opacity="0.9">BAHÇE & DOĞA</text>
</svg>