<svg xmlns="http://www.w3.org/2000/svg" viewBox="0 0 400 400" width="400" height="400">
  <defs>
    <pattern id="grid" width="20" height="20" patternUnits="userSpaceOnUse">
      <path d="M 20 0 L 0 0 0 20" fill="none" stroke="#F97316" stroke-width="0.3" opacity="0.2"/>
    </pattern>
  </defs>
  <!-- Arkaplan -->
  <rect width="400" height="400" fill="#0A1628"/>
  <rect width="400" height="400" fill="url(#grid)"/>
  <!-- İçerik -->
  
  <!-- Harf bloklar -->
  <rect x="90" y="200" width="55" height="55" rx="8" fill="#F97316" opacity="0.8"/>
  <text x="117" y="235" text-anchor="middle" font-family="sans-serif" font-weight="bold" font-size="28" fill="#E2E8F0">A</text>
  <rect x="153" y="185" width="55" height="55" rx="8" fill="#8B5CF6" opacity="0.8"/>
  <text x="180" y="220" text-anchor="middle" font-family="sans-serif" font-weight="bold" font-size="28" fill="#E2E8F0">B</text>
  <rect x="216" y="200" width="55" height="55" rx="8" fill="#22C55E" opacity="0.8"/>
  <text x="243" y="235" text-anchor="middle" font-family="sans-serif" font-weight="bold" font-size="28" fill="#E2E8F0">C</text>
  <!-- Rakamlar üst -->
  <rect x="110" y="130" width="44" height="44" rx="8" fill="#0EA5E9" opacity="0.7"/>
  <text x="132" y="159" text-anchor="middle" font-family="sans-serif" font-weight="bold" font-size="22" fill="#E2E8F0">1</text>
  <rect x="178" y="120" width="44" height="44" rx="8" fill="#F97316" opacity="0.6"/>
  <text x="200" y="149" text-anchor="middle" font-family="sans-serif" font-weight="bold" font-size="22" fill="#E2E8F0">2</text>
  <rect x="246" y="130" width="44" height="44" rx="8" fill="#8B5CF6" opacity="0.6"/>
  <text x="268" y="159" text-anchor="middle" font-family="sans-serif" font-weight="bold" font-size="22" fill="#E2E8F0">3</text>
  <text x="200" y="330" text-anchor="middle" font-family="sans-serif" font-size="11" fill="#94A3B8">Alfabe Seti</text>

  <!-- Etiket -->
  <rect x="0" y="356" width="400" height="44" fill="#0D1F35" opacity="0.95"/>
  <line x1="0" y1="356" x2="400" y2="356" stroke="#F97316" stroke-width="1" opacity="0.5"/>
  <text x="200" y="382" text-anchor="middle" font-family="monospace" font-size="12" fill="#F97316" opacity="0.9">ÇOCUK & OYUNCAK</text>
</svg>