<svg xmlns="http://www.w3.org/2000/svg" viewBox="0 0 400 400" width="400" height="400">
  <defs>
    <pattern id="grid" width="20" height="20" patternUnits="userSpaceOnUse">
      <path d="M 20 0 L 0 0 0 20" fill="none" stroke="#F97316" stroke-width="0.3" opacity="0.2"/>
    </pattern>
  </defs>
  <!-- Arkaplan -->
  <rect width="400" height="400" fill="#0A1628"/>
  <rect width="400" height="400" fill="url(#grid)"/>
  <!-- İçerik -->
  
  <!-- Facet vazo -->
  <polygon points="200,80 240,140 260,220 240,290 200,310 160,290 140,220 160,140" 
           fill="#0D1F35" stroke="#F97316" stroke-width="1.5"/>
  <!-- İç facet -->
  <polygon points="200,110 228,155 242,215 228,268 200,280 172,268 158,215 172,155" 
           fill="none" stroke="#F97316" stroke-width="0.5" opacity="0.4"/>
  <!-- Çiçek -->
  <circle cx="200" cy="190" r="30" fill="#F97316" opacity="0.15"/>
  <circle cx="200" cy="165" r="8" fill="#F97316" opacity="0.7"/>
  <circle cx="220" cy="178" r="7" fill="#F97316" opacity="0.5"/>
  <circle cx="215" cy="200" r="7" fill="#F97316" opacity="0.5"/>
  <circle cx="200" cy="208" r="6" fill="#F97316" opacity="0.4"/>
  <circle cx="185" cy="200" r="7" fill="#F97316" opacity="0.5"/>
  <circle cx="180" cy="178" r="7" fill="#F97316" opacity="0.5"/>
  <text x="200" y="355" text-anchor="middle" font-family="sans-serif" font-size="11" fill="#94A3B8">Geometrik Vazo</text>

  <!-- Etiket -->
  <rect x="0" y="356" width="400" height="44" fill="#0D1F35" opacity="0.95"/>
  <line x1="0" y1="356" x2="400" y2="356" stroke="#F97316" stroke-width="1" opacity="0.5"/>
  <text x="200" y="382" text-anchor="middle" font-family="monospace" font-size="12" fill="#F97316" opacity="0.9">DEKORASYON</text>
</svg>