<svg xmlns="http://www.w3.org/2000/svg" viewBox="0 0 400 400" width="400" height="400">
  <defs>
    <pattern id="grid" width="20" height="20" patternUnits="userSpaceOnUse">
      <path d="M 20 0 L 0 0 0 20" fill="none" stroke="#0EA5E9" stroke-width="0.3" opacity="0.2"/>
    </pattern>
  </defs>
  <!-- Arkaplan -->
  <rect width="400" height="400" fill="#0A1628"/>
  <rect width="400" height="400" fill="url(#grid)"/>
  <!-- İçerik -->
  
  <!-- DNA sarmal -->
  
  <line x1="170" y1="80" 
        x2="230" y2="80" 
        stroke="#0EA5E9" stroke-width="3" stroke-linecap="round" opacity="0.7"/>
  <line x1="185" y1="94" 
        x2="215" y2="94" 
        stroke="#8B5CF6" stroke-width="3" stroke-linecap="round" opacity="0.7"/>
  <line x1="198" y1="108" 
        x2="202" y2="108" 
        stroke="#22C55E" stroke-width="3" stroke-linecap="round" opacity="0.7"/>
  <line x1="207" y1="122" 
        x2="193" y2="122" 
        stroke="#0EA5E9" stroke-width="3" stroke-linecap="round" opacity="0.7"/>
  <line x1="209" y1="136" 
        x2="191" y2="136" 
        stroke="#8B5CF6" stroke-width="3" stroke-linecap="round" opacity="0.7"/>
  <line x1="206" y1="150" 
        x2="194" y2="150" 
        stroke="#22C55E" stroke-width="3" stroke-linecap="round" opacity="0.7"/>
  <line x1="197" y1="164" 
        x2="203" y2="164" 
        stroke="#0EA5E9" stroke-width="3" stroke-linecap="round" opacity="0.7"/>
  <line x1="183" y1="178" 
        x2="217" y2="178" 
        stroke="#8B5CF6" stroke-width="3" stroke-linecap="round" opacity="0.7"/>
  <line x1="168" y1="192" 
        x2="232" y2="192" 
        stroke="#22C55E" stroke-width="3" stroke-linecap="round" opacity="0.7"/>
  <line x1="153" y1="206" 
        x2="247" y2="206" 
        stroke="#0EA5E9" stroke-width="3" stroke-linecap="round" opacity="0.7"/>
  <line x1="140" y1="220" 
        x2="260" y2="220" 
        stroke="#8B5CF6" stroke-width="3" stroke-linecap="round" opacity="0.7"/>
  <line x1="132" y1="234" 
        x2="268" y2="234" 
        stroke="#22C55E" stroke-width="3" stroke-linecap="round" opacity="0.7"/>
  <line x1="131" y1="248" 
        x2="269" y2="248" 
        stroke="#0EA5E9" stroke-width="3" stroke-linecap="round" opacity="0.7"/>
  <line x1="135" y1="262" 
        x2="265" y2="262" 
        stroke="#8B5CF6" stroke-width="3" stroke-linecap="round" opacity="0.7"/>
  <line x1="145" y1="276" 
        x2="255" y2="276" 
        stroke="#22C55E" stroke-width="3" stroke-linecap="round" opacity="0.7"/>
  <line x1="159" y1="290" 
        x2="241" y2="290" 
        stroke="#0EA5E9" stroke-width="3" stroke-linecap="round" opacity="0.7"/>
  <line x1="174" y1="304" 
        x2="226" y2="304" 
        stroke="#8B5CF6" stroke-width="3" stroke-linecap="round" opacity="0.7"/>
  <line x1="189" y1="318" 
        x2="211" y2="318" 
        stroke="#22C55E" stroke-width="3" stroke-linecap="round" opacity="0.7"/>
  <!-- Sarmal çizgiler -->
  <path d="M 170 80 Q 150 130 170 180 Q 190 230 170 280 Q 150 310 170 340" 
        fill="none" stroke="#0EA5E9" stroke-width="2" opacity="0.5"/>
  <path d="M 230 80 Q 250 130 230 180 Q 210 230 230 280 Q 250 310 230 340" 
        fill="none" stroke="#8B5CF6" stroke-width="2" opacity="0.5"/>
  <text x="200" y="358" text-anchor="middle" font-family="sans-serif" font-size="11" fill="#94A3B8">DNA Sarmal</text>

  <!-- Etiket -->
  <rect x="0" y="356" width="400" height="44" fill="#0D1F35" opacity="0.95"/>
  <line x1="0" y1="356" x2="400" y2="356" stroke="#0EA5E9" stroke-width="1" opacity="0.5"/>
  <text x="200" y="382" text-anchor="middle" font-family="monospace" font-size="12" fill="#0EA5E9" opacity="0.9">EĞİTİM & BİLİM</text>
</svg>