<svg xmlns="http://www.w3.org/2000/svg" viewBox="0 0 400 400" width="400" height="400">
  <defs>
    <pattern id="grid" width="20" height="20" patternUnits="userSpaceOnUse">
      <path d="M 20 0 L 0 0 0 20" fill="none" stroke="#F97316" stroke-width="0.3" opacity="0.2"/>
    </pattern>
  </defs>
  <!-- Arkaplan -->
  <rect width="400" height="400" fill="#0A1628"/>
  <rect width="400" height="400" fill="url(#grid)"/>
  <!-- İçerik -->
  
  <!-- Arka plaka -->
  <rect x="100" y="100" width="200" height="220" rx="8" fill="#0D1F35" stroke="#F97316" stroke-width="1.5"/>
  <!-- Ray delikleri -->
  <circle cx="120" cy="120" r="6" fill="#0A1628" stroke="#F97316" stroke-width="1"/>
  <circle cx="280" cy="120" r="6" fill="#0A1628" stroke="#F97316" stroke-width="1"/>
  <!-- Tornavidalar -->
  
  <rect x="130" y="145" width="8" height="100" rx="2" fill="#F97316" opacity="0.7"/>
  <polygon points="130,145 138,145 134,130" fill="#475569" opacity="0.8"/>
  <rect x="131" y="235" width="6" height="8" rx="1" fill="#0A1628" stroke="#F97316" stroke-width="0.5"/>
  
  <rect x="150" y="145" width="8" height="80" rx="2" fill="#F97316" opacity="0.6499999999999999"/>
  <polygon points="150,145 158,145 154,130" fill="#475569" opacity="0.8"/>
  <rect x="151" y="220" width="6" height="8" rx="1" fill="#0A1628" stroke="#F97316" stroke-width="0.5"/>
  
  <rect x="170" y="145" width="8" height="100" rx="2" fill="#F97316" opacity="0.6"/>
  <polygon points="170,145 178,145 174,130" fill="#475569" opacity="0.8"/>
  <rect x="171" y="235" width="6" height="8" rx="1" fill="#0A1628" stroke="#F97316" stroke-width="0.5"/>
  
  <rect x="190" y="145" width="8" height="80" rx="2" fill="#F97316" opacity="0.5499999999999999"/>
  <polygon points="190,145 198,145 194,130" fill="#475569" opacity="0.8"/>
  <rect x="191" y="220" width="6" height="8" rx="1" fill="#0A1628" stroke="#F97316" stroke-width="0.5"/>
  
  <rect x="210" y="145" width="8" height="100" rx="2" fill="#F97316" opacity="0.49999999999999994"/>
  <polygon points="210,145 218,145 214,130" fill="#475569" opacity="0.8"/>
  <rect x="211" y="235" width="6" height="8" rx="1" fill="#0A1628" stroke="#F97316" stroke-width="0.5"/>
  
  <rect x="230" y="145" width="8" height="80" rx="2" fill="#F97316" opacity="0.44999999999999996"/>
  <polygon points="230,145 238,145 234,130" fill="#475569" opacity="0.8"/>
  <rect x="231" y="220" width="6" height="8" rx="1" fill="#0A1628" stroke="#F97316" stroke-width="0.5"/>
  
  <rect x="250" y="145" width="8" height="100" rx="2" fill="#F97316" opacity="0.3999999999999999"/>
  <polygon points="250,145 258,145 254,130" fill="#475569" opacity="0.8"/>
  <rect x="251" y="235" width="6" height="8" rx="1" fill="#0A1628" stroke="#F97316" stroke-width="0.5"/>
  
  <text x="200" y="340" text-anchor="middle" font-family="sans-serif" font-size="11" fill="#94A3B8">Tornavida Rayı</text>

  <!-- Etiket -->
  <rect x="0" y="356" width="400" height="44" fill="#0D1F35" opacity="0.95"/>
  <line x1="0" y1="356" x2="400" y2="356" stroke="#F97316" stroke-width="1" opacity="0.5"/>
  <text x="200" y="382" text-anchor="middle" font-family="monospace" font-size="12" fill="#F97316" opacity="0.9">EL ALETİ</text>
</svg>