<svg xmlns="http://www.w3.org/2000/svg" viewBox="0 0 400 400" width="400" height="400">
  <defs>
    <pattern id="grid" width="20" height="20" patternUnits="userSpaceOnUse">
      <path d="M 20 0 L 0 0 0 20" fill="none" stroke="#0EA5E9" stroke-width="0.3" opacity="0.2"/>
    </pattern>
  </defs>
  <!-- Arkaplan -->
  <rect width="400" height="400" fill="#0A1628"/>
  <rect width="400" height="400" fill="url(#grid)"/>
  <!-- İçerik -->
  
  <rect x="100" y="120" width="200" height="140" rx="12" fill="#0D1F35" stroke="#0EA5E9" stroke-width="1.5"/>
  <rect x="115" y="135" width="170" height="8" rx="3" fill="#0EA5E9" opacity="0.4"/>
  <rect x="115" y="149" width="170" height="8" rx="3" fill="#0EA5E9" opacity="0.3"/>
  <rect x="115" y="163" width="170" height="8" rx="3" fill="#0EA5E9" opacity="0.2"/>
  <ellipse cx="200" cy="170" rx="55" ry="25" fill="#0EA5E9" opacity="0.12"/>
  <text x="200" y="230" text-anchor="middle" font-family="sans-serif" font-size="11" fill="#94A3B8">Sabun Kaseti</text>
  <!-- Drenaj delikleri -->
  <circle cx="140" cy="200" r="4" fill="#0A1628" stroke="#0EA5E9" stroke-width="1" opacity="0.6"/><circle cx="160" cy="200" r="4" fill="#0A1628" stroke="#0EA5E9" stroke-width="1" opacity="0.6"/><circle cx="180" cy="200" r="4" fill="#0A1628" stroke="#0EA5E9" stroke-width="1" opacity="0.6"/><circle cx="200" cy="200" r="4" fill="#0A1628" stroke="#0EA5E9" stroke-width="1" opacity="0.6"/><circle cx="220" cy="200" r="4" fill="#0A1628" stroke="#0EA5E9" stroke-width="1" opacity="0.6"/><circle cx="240" cy="200" r="4" fill="#0A1628" stroke="#0EA5E9" stroke-width="1" opacity="0.6"/><circle cx="260" cy="200" r="4" fill="#0A1628" stroke="#0EA5E9" stroke-width="1" opacity="0.6"/>
  <circle cx="140" cy="215" r="4" fill="#0A1628" stroke="#0EA5E9" stroke-width="1" opacity="0.6"/><circle cx="160" cy="215" r="4" fill="#0A1628" stroke="#0EA5E9" stroke-width="1" opacity="0.6"/><circle cx="180" cy="215" r="4" fill="#0A1628" stroke="#0EA5E9" stroke-width="1" opacity="0.6"/><circle cx="200" cy="215" r="4" fill="#0A1628" stroke="#0EA5E9" stroke-width="1" opacity="0.6"/><circle cx="220" cy="215" r="4" fill="#0A1628" stroke="#0EA5E9" stroke-width="1" opacity="0.6"/><circle cx="240" cy="215" r="4" fill="#0A1628" stroke="#0EA5E9" stroke-width="1" opacity="0.6"/><circle cx="260" cy="215" r="4" fill="#0A1628" stroke="#0EA5E9" stroke-width="1" opacity="0.6"/>

  <!-- Etiket -->
  <rect x="0" y="356" width="400" height="44" fill="#0D1F35" opacity="0.95"/>
  <line x1="0" y1="356" x2="400" y2="356" stroke="#0EA5E9" stroke-width="1" opacity="0.5"/>
  <text x="200" y="382" text-anchor="middle" font-family="monospace" font-size="12" fill="#0EA5E9" opacity="0.9">EV & YAŞAM</text>
</svg>