<svg xmlns="http://www.w3.org/2000/svg" viewBox="0 0 400 400" width="400" height="400">
  <defs>
    <pattern id="grid" width="20" height="20" patternUnits="userSpaceOnUse">
      <path d="M 20 0 L 0 0 0 20" fill="none" stroke="#8B5CF6" stroke-width="0.3" opacity="0.2"/>
    </pattern>
  </defs>
  <!-- Arkaplan -->
  <rect width="400" height="400" fill="#0A1628"/>
  <rect width="400" height="400" fill="url(#grid)"/>
  <!-- İçerik -->
  
  <!-- Kalem kutusu gövde -->
  <rect x="130" y="140" width="140" height="160" rx="8" fill="#0D1F35" stroke="#8B5CF6" stroke-width="1.5"/>
  <!-- Bölmeler -->
  <line x1="175" y1="155" x2="175" y2="290" stroke="#8B5CF6" stroke-width="1" opacity="0.4"/>
  <line x1="220" y1="155" x2="220" y2="290" stroke="#8B5CF6" stroke-width="1" opacity="0.4"/>
  <!-- Kalemler -->
  <rect x="138" y="100" width="10" height="80" rx="3" fill="#F97316" opacity="0.8"/>
  <rect x="152" y="115" width="10" height="65" rx="3" fill="#0EA5E9" opacity="0.8"/>
  <rect x="183" y="95" width="10" height="85" rx="3" fill="#22C55E" opacity="0.8"/>
  <rect x="197" y="110" width="10" height="70" rx="3" fill="#F97316" opacity="0.6"/>
  <rect x="228" y="105" width="10" height="75" rx="3" fill="#8B5CF6" opacity="0.8"/>
  <rect x="242" y="120" width="10" height="60" rx="3" fill="#0EA5E9" opacity="0.6"/>
  <text x="200" y="330" text-anchor="middle" font-family="sans-serif" font-size="11" fill="#94A3B8">Kalem Düzenleyici</text>

  <!-- Etiket -->
  <rect x="0" y="356" width="400" height="44" fill="#0D1F35" opacity="0.95"/>
  <line x1="0" y1="356" x2="400" y2="356" stroke="#8B5CF6" stroke-width="1" opacity="0.5"/>
  <text x="200" y="382" text-anchor="middle" font-family="monospace" font-size="12" fill="#8B5CF6" opacity="0.9">OFİS & MASA</text>
</svg>