<svg xmlns="http://www.w3.org/2000/svg" viewBox="0 0 400 400" width="400" height="400">
  <defs>
    <pattern id="grid" width="20" height="20" patternUnits="userSpaceOnUse">
      <path d="M 20 0 L 0 0 0 20" fill="none" stroke="#22C55E" stroke-width="0.3" opacity="0.2"/>
    </pattern>
  </defs>
  <!-- Arkaplan -->
  <rect width="400" height="400" fill="#0A1628"/>
  <rect width="400" height="400" fill="url(#grid)"/>
  <!-- İçerik -->
  
  <!-- Kule gövde -->
  <rect x="155" y="100" width="90" height="200" rx="6" fill="#0D1F35" stroke="#22C55E" stroke-width="1.5"/>
  <!-- Katlar -->
  <rect x="162" y="115" width="76" height="3" rx="1" fill="#22C55E" opacity="0.5"/>
  <rect x="162" y="155" width="76" height="3" rx="1" fill="#22C55E" opacity="0.5"/>
  <rect x="162" y="195" width="76" height="3" rx="1" fill="#22C55E" opacity="0.5"/>
  <!-- Açıklık -->
  <rect x="170" y="245" width="60" height="30" rx="4" fill="#0A1628" stroke="#22C55E" stroke-width="1"/>
  <!-- Zar -->
  <rect x="178" y="130" width="44" height="44" rx="4" fill="#0A1628" stroke="#22C55E" stroke-width="1"/>
  <circle cx="192" cy="144" r="4" fill="#22C55E" opacity="0.8"/>
  <circle cx="208" cy="144" r="4" fill="#22C55E" opacity="0.8"/>
  <circle cx="192" cy="158" r="4" fill="#22C55E" opacity="0.8"/>
  <circle cx="208" cy="158" r="4" fill="#22C55E" opacity="0.8"/>
  <!-- Alt tepsi -->
  <rect x="140" y="295" width="120" height="15" rx="3" fill="#0D1F35" stroke="#22C55E" stroke-width="1"/>
  <text x="200" y="345" text-anchor="middle" font-family="sans-serif" font-size="11" fill="#94A3B8">RPG Zar Kulesi</text>

  <!-- Etiket -->
  <rect x="0" y="356" width="400" height="44" fill="#0D1F35" opacity="0.95"/>
  <line x1="0" y1="356" x2="400" y2="356" stroke="#22C55E" stroke-width="1" opacity="0.5"/>
  <text x="200" y="382" text-anchor="middle" font-family="monospace" font-size="12" fill="#22C55E" opacity="0.9">OYUN & HOBİ</text>
</svg>