<svg xmlns="http://www.w3.org/2000/svg" viewBox="0 0 400 400" width="400" height="400">
  <defs>
    <pattern id="grid" width="20" height="20" patternUnits="userSpaceOnUse">
      <path d="M 20 0 L 0 0 0 20" fill="none" stroke="#0EA5E9" stroke-width="0.3" opacity="0.2"/>
    </pattern>
  </defs>
  <!-- Arkaplan -->
  <rect width="400" height="400" fill="#0A1628"/>
  <rect width="400" height="400" fill="url(#grid)"/>
  <!-- İçerik -->
  
  <!-- Gidon -->
  <rect x="120" y="160" width="160" height="20" rx="8" fill="#0EA5E9" opacity="0.7"/>
  <!-- Telefon tutucu -->
  <rect x="165" y="130" width="70" height="110" rx="8" fill="#0D1F35" stroke="#0EA5E9" stroke-width="2"/>
  <rect x="171" y="136" width="58" height="98" rx="5" fill="#0A1628" stroke="#0EA5E9" stroke-width="0.5" opacity="0.5"/>
  <!-- Telefon ekran -->
  <rect x="175" y="142" width="50" height="84" rx="3" fill="#1a1a2e"/>
  <line x1="200" y1="215" x2="200" y2="225" stroke="#0EA5E9" stroke-width="2"/>
  <!-- Klipsler -->
  <rect x="155" y="148" width="10" height="30" rx="3" fill="#0EA5E9" opacity="0.8"/>
  <rect x="235" y="148" width="10" height="30" rx="3" fill="#0EA5E9" opacity="0.8"/>
  <text x="200" y="315" text-anchor="middle" font-family="sans-serif" font-size="11" fill="#94A3B8">Gidon Tutucu</text>

  <!-- Etiket -->
  <rect x="0" y="356" width="400" height="44" fill="#0D1F35" opacity="0.95"/>
  <line x1="0" y1="356" x2="400" y2="356" stroke="#0EA5E9" stroke-width="1" opacity="0.5"/>
  <text x="200" y="382" text-anchor="middle" font-family="monospace" font-size="12" fill="#0EA5E9" opacity="0.9">SPOR & OUTDOOR</text>
</svg>